<?xml version="1.0" standalone="no"?>
<!DOCTYPE svg PUBLIC "-//W3C//DTD SVG 20010904//EN"
 "http://www.w3.org/TR/2001/REC-SVG-20010904/DTD/svg10.dtd">
<svg version="1.0" xmlns="http://www.w3.org/2000/svg"
 width="305.000000pt" height="305.000000pt" viewBox="0 0 305.000000 305.000000"
 preserveAspectRatio="xMidYMid meet">
<metadata>
Created by potrace 1.11, written by Peter Selinger 2001-2013
</metadata>
<g transform="translate(0.000000,305.000000) scale(0.100000,-0.100000)"
fill="#000000" stroke="none">
<path d="M1435 2944 c-117 -15 -170 -28 -253 -61 -217 -87 -402 -251 -511
-453 -53 -99 -93 -213 -107 -300 -2 -14 -6 -40 -9 -57 -20 -119 2 -281 60
-444 57 -159 226 -508 271 -560 8 -8 14 -18 14 -22 0 -4 29 -54 65 -112 36
-57 65 -107 65 -110 0 -3 5 -11 10 -18 6 -7 51 -75 102 -152 148 -228 404
-585 418 -585 4 0 20 19 36 43 16 23 32 44 35 47 16 14 221 308 331 475 322
489 517 868 582 1130 41 161 30 337 -31 515 -153 446 -608 726 -1078 664z m10
-461 c28 -13 65 -38 82 -56 l33 -31 27 26 c113 106 296 107 412 2 131 -117
163 -342 75 -517 -72 -142 -230 -331 -354 -422 -15 -11 -38 -28 -51 -38 -13
-10 -44 -30 -68 -46 l-43 -29 -47 31 c-198 131 -370 316 -462 495 -67 132 -73
265 -19 397 79 189 253 267 415 188z"/>
</g>
</svg>
